PathFileType	4	(X/Y/Z)	D:\Share\Shared_Data\Ergonomics\Sit To Stand Pertubation\S0\Free STS.trc
DataRate	CameraRate	NumFrames	NumMarkers	Units	OrigDataRate	OrigDataStartFrame	OrigNumFrames	
100	100	19	18	m	100	3900	211
Frame#	Time	R_Toe			R_ASIS			R_Pelvis			V_Sacral			L_Pelvis			L_ASIS			Clavical			R_Acromium			L_Acromium			Sternum			Torso			R_Thigh_Med			R_Thigh_Lat			R_Thigh			R_Shank_Med			R_Shank_Lat			R_Shank			R_Heel			
		X1	Y1	Z1	X2	Y2	Z2	X3	Y3	Z3	X4	Y4	Z4	X5	Y5	Z5	X6	Y6	Z6	X7	Y7	Z7	X8	Y8	Z8	X9	Y9	Z9	X10	Y10	Z10	X11	Y11	Z11	X12	Y12	Z12	X13	Y13	Z13	X14	Y14	Z14	X15	Y15	Z15	X16	Y16	Z16	X17	Y17	Z17	X18	Y18	Z18	

3900	25.42	0.37419098	0.050651691	0.14420729	-0.057113247	0.73986707	0.1444127	-0.18785547	0.73134027	0.18647356	-0.30188333	0.7037041	-0.044972366	-0.156661	0.72428326	-0.22247516	-0.03418906	0.7348667	-0.17333517	0.06191148	1.084936	-0.016410046	-0.0060170684	1.1621478	0.12388118	-0.010312041	1.1698313	-0.16464352	0.067919998	0.98773187	-0.033973244	0.056970676	1.0394957	-0.13896098	0.27975858	0.4950643	0.077596542	0.25436696	0.51377148	0.20964464	0.18600124	0.64648969	0.12304642	0.25176677	0.10623232	0.10972047	0.19340546	0.091360153	0.1964481	0.23142387	0.31387653	0.21953172	0.15527121	0.047960102	0.14921475
3901	25.43	0.37408307	0.050695984	0.14422556	-0.055474991	0.74004797	0.14459775	-0.18664304	0.7320105	0.18652226	-0.30090939	0.70505786	-0.044939671	-0.15550929	0.72504749	-0.22245293	-0.03284766	0.73464142	-0.17332967	0.067953369	1.0826261	-0.016179579	0.001035695	1.1606318	0.12410266	-0.0032225335	1.1683668	-0.16431102	0.072801346	0.9853573	-0.033725662	0.062473778	1.0372881	-0.13868761	0.27971332	0.49493542	0.077624153	0.25440413	0.51362817	0.20968306	0.18623318	0.64637299	0.12310224	0.25169345	0.10614188	0.10961125	0.19326305	0.091271301	0.19631905	0.23130972	0.31378391	0.21943559	0.15518015	0.047787804	0.14907156
3902	25.44	0.37396176	0.050747868	0.14424144	-0.053707928	0.74028467	0.14479684	-0.1853595	0.7327337	0.18658017	-0.29986105	0.70649506	-0.044902039	-0.1542675	0.7258349	-0.22242186	-0.031428204	0.73440814	-0.17330293	0.074174217	1.0802169	-0.015931493	0.008261322	1.1590322	0.12433099	0.0040775256	1.1667899	-0.16396986	0.077824669	0.98289752	-0.033450119	0.068149353	1.0349808	-0.13839374	0.27968024	0.49479462	0.077657669	0.2544584	0.51347333	0.20972864	0.1864959	0.64625183	0.12317168	0.25160924	0.10604275	0.10949499	0.19313089	0.09116478	0.19618152	0.23120088	0.31367917	0.21934486	0.15507979	0.047598209	0.14892174
3903	25.45	0.37382861	0.050807251	0.14425388	-0.051842922	0.74054492	0.14500037	-0.18400323	0.73351685	0.18665401	-0.29873251	0.70802179	-0.044857063	-0.1529317	0.72664392	-0.22237962	-0.02993457	0.7341637	-0.17325061	0.080573479	1.0777069	-0.015668124	0.015657952	1.1573485	0.12456251	0.011582961	1.165095	-0.16362221	0.082983047	0.98035077	-0.033148335	0.073990143	1.0325703	-0.13808144	0.27966016	0.49464145	0.077696236	0.25453415	0.51330829	0.20978026	0.18679129	0.6461264	0.12325373	0.25151566	0.10593559	0.10937196	0.19301189	0.091040146	0.19603706	0.23110229	0.31356207	0.21925809	0.15497058	0.047394051	0.14876746
3904	25.46	0.37368555	0.05087429	0.14426215	-0.049927776	0.74079657	0.14520026	-0.18257243	0.7343667	0.1867511	-0.29751822	0.70964429	-0.044802792	-0.15149747	0.72747308	-0.22232536	-0.028370199	0.73390411	-0.17316827	0.087150414	1.075097	-0.015392755	0.023226284	1.1555807	0.12479337	0.019285154	1.1632798	-0.16327017	0.0882659	0.97771686	-0.032823914	0.079985352	1.0300555	-0.13775372	0.27965448	0.49447546	0.077739128	0.25463701	0.51313464	0.20983716	0.18712135	0.64599799	0.12334813	0.25141525	0.10582162	0.10924299	0.19290259	0.090900833	0.19588921	0.23101918	0.31343295	0.21917413	0.15485373	0.047178566	0.14861099
3905	25.47	0.37353442	0.050949368	0.14426556	-0.048033424	0.74100458	0.14539084	-0.1810636	0.73528772	0.18687726	-0.2962121	0.711367	-0.044737888	-0.14995973	0.72832208	-0.22225958	-0.026736792	0.73362469	-0.17305212	0.093902275	1.0723888	-0.015110034	0.030969652	1.1537285	0.12501985	0.027172911	1.1613464	-0.16291595	0.09366053	0.97499689	-0.032482632	0.086122025	1.0274396	-0.13741531	0.27966562	0.49429648	0.077785851	0.25477394	0.51295398	0.20989905	0.18748952	0.64587085	0.12345548	0.25131145	0.10570252	0.10910927	0.19279651	0.090752617	0.19574149	0.23095692	0.3132926	0.21909291	0.15473129	0.046954594	0.14845418
3906	25.48	0.37337683	0.051033371	0.14426344	-0.046249245	0.74113165	0.14556995	-0.17946957	0.7362804	0.18703473	-0.29480722	0.71319269	-0.044661594	-0.14831233	0.72919153	-0.22218304	-0.025032593	0.73332123	-0.17289998	0.10082234	1.0695844	-0.014826102	0.038892971	1.1517916	0.12523836	0.035234104	1.1593029	-0.16256154	0.099153679	0.97219446	-0.032132305	0.092387505	1.0247313	-0.13707277	0.27969763	0.4941048	0.077836113	0.254953	0.51276801	0.20996617	0.18790266	0.64575189	0.12357613	0.25120798	0.10558013	0.10897223	0.19268828	0.090601128	0.19559595	0.23092093	0.313142	0.21901527	0.15460583	0.046724243	0.14829802
3907	25.49	0.37321414	0.051127987	0.14425557	-0.044656971	0.74114807	0.1457403	-0.17777977	0.73734027	0.18722121	-0.29329596	0.7151225	-0.04457391	-0.14654807	0.73008337	-0.22209608	-0.023250912	0.73299115	-0.1727122	0.10790012	1.0666879	-0.014547931	0.047000999	1.14977	0.12544507	0.043457653	1.15716	-0.16220869	0.10473351	0.96931616	-0.031781982	0.098772408	1.021944	-0.13673427	0.27975589	0.49390152	0.077889839	0.25518254	0.51257886	0.21003893	0.18837143	0.64565076	0.12370906	0.25110811	0.10545595	0.10883344	0.19257649	0.090450424	0.19545303	0.23091696	0.31298285	0.2189425	0.1544803	0.04648978	0.14814354
3908	25.5	0.37304843	0.051235435	0.1442421	-0.043281696	0.74105145	0.14591023	-0.17598251	0.73846045	0.18743166	-0.29167032	0.71715717	-0.044475403	-0.1446597	0.73100067	-0.22199821	-0.021381111	0.73263281	-0.17249237	0.11512248	1.063704	-0.014282181	0.055296223	1.1476659	0.12563551	0.051835369	1.1549333	-0.16185893	0.11039407	0.9663717	-0.031440321	0.10527325	1.0190948	-0.13640826	0.27984702	0.49368893	0.077947075	0.25546983	0.51238855	0.21011821	0.18890822	0.64557855	0.12385184	0.25101471	0.10533107	0.1086944	0.19246376	0.090302895	0.19531258	0.2309509	0.3128175	0.21887592	0.15435803	0.046254501	0.14799191
3909	25.51	0.37288242	0.051357368	0.14422403	-0.042050121	0.74088416	0.1460919	-0.17406792	0.73963489	0.18766156	-0.28992325	0.71929742	-0.044366341	-0.14264236	0.73194769	-0.22188913	-0.019413187	0.7322453	-0.17224635	0.12247476	1.0606403	-0.014034031	0.063776901	1.1454841	0.12580481	0.060363159	1.1526379	-0.16151352	0.11614118	0.96337219	-0.031113291	0.11189367	1.0162014	-0.13610219	0.27997778	0.49347052	0.078007866	0.25581995	0.51219952	0.21020518	0.18952443	0.64554608	0.12400156	0.25093073	0.10520604	0.10855649	0.19235542	0.090159821	0.19517453	0.23102812	0.31264868	0.21881639	0.15424318	0.046022842	0.14784433
3910	25.52	0.37272046	0.051494286	0.14420314	-0.040814308	0.74072394	0.14629779	-0.17202861	0.74086035	0.18790894	-0.28804871	0.72154498	-0.044246162	-0.14049442	0.73292932	-0.22176895	-0.0173428	0.73182965	-0.17198068	0.12994214	1.0575048	-0.013806342	0.072436638	1.1432339	0.12594846	0.069040688	1.1502899	-0.16117352	0.12199385	0.96033051	-0.030803076	0.1186431	1.0132803	-0.13582062	0.28015433	0.49325058	0.078072357	0.2562356	0.51201465	0.21030148	0.19022862	0.64556171	0.12415611	0.25085977	0.10508089	0.10842117	0.19225803	0.090021866	0.19503897	0.23115294	0.312479	0.21876495	0.15414067	0.045799923	0.147702
3911	25.53	0.37256818	0.051645996	0.14418176	-0.039433231	0.74064349	0.14653722	-0.16985939	0.74213678	0.18817384	-0.28604224	0.72390295	-0.044113506	-0.13821681	0.73395056	-0.2216378	-0.015171961	0.73138849	-0.17170125	0.13751169	1.0543088	-0.013599278	0.081265808	1.140928	0.12606342	0.077869652	1.1479023	-0.16083911	0.12798041	0.95726031	-0.030509041	0.12553365	1.010345	-0.13556438	0.28038156	0.4930336	0.078140923	0.25671719	0.51183612	0.210409	0.19102487	0.64563104	0.12431531	0.25080606	0.10495524	0.1082904	0.19217825	0.089889473	0.1949063	0.23132806	0.31231027	0.21872342	0.15405559	0.045590431	0.1475661
3912	25.54	0.37243173	0.051812576	0.14416225	-0.037827572	0.74067181	0.14681467	-0.16755634	0.74346667	0.18845706	-0.28390048	0.7263764	-0.043966755	-0.1358118	0.73501599	-0.22149532	-0.012900888	0.73092902	-0.1714137	0.14517513	1.0510651	-0.01341062	0.090253868	1.1385822	0.12614896	0.086852203	1.145486	-0.16050926	0.13413309	0.95417596	-0.030229393	0.13257751	1.0074048	-0.13533035	0.28066327	0.49282388	0.078214188	0.2572627	0.51166528	0.21052881	0.19191153	0.64575549	0.12448125	0.25077417	0.10482899	0.10816672	0.19212195	0.089763329	0.19477751	0.23155444	0.31214365	0.21869426	0.15399246	0.045397144	0.14743823
3913	25.55	0.37231543	0.051994576	0.14414688	-0.035975109	0.74079279	0.14712975	-0.16511609	0.74485541	0.18875876	-0.28162039	0.72897198	-0.043804726	-0.13328246	0.73612952	-0.22134109	-0.010516084	0.73046307	-0.17112389	0.15293156	1.0477882	-0.013236804	0.099390907	1.1362123	0.1262066	0.095990295	1.1430487	-0.1601817	0.1404805	0.95109131	-0.029962248	0.13978531	1.0044658	-0.1351124	0.28100201	0.49262543	0.078292442	0.25786694	0.51150201	0.21065964	0.19288135	0.64593127	0.12465701	0.25076768	0.10470272	0.108053	0.19209343	0.08964431	0.19465517	0.23183093	0.31197971	0.21867976	0.15395422	0.045220085	0.14732027
3914	25.56	0.3722211	0.052192493	0.1441376	-0.033882835	0.74097638	0.14747665	-0.16253516	0.74631128	0.18907776	-0.27919849	0.73169751	-0.0436273	-0.13063136	0.73729565	-0.22117474	-0.0079960284	0.73000452	-0.17083803	0.16078999	1.0444948	-0.013074002	0.10866768	1.1338339	0.12623943	0.10528557	1.1405983	-0.15985349	0.14703932	0.94801819	-0.029706182	0.14716499	1.0015335	-0.13490288	0.28139899	0.49244174	0.078374489	0.25852203	0.5113454	0.21079765	0.1939218	0.64614954	0.12484489	0.25078758	0.10457723	0.10795216	0.19209462	0.089533073	0.1945435	0.23215359	0.31181921	0.21868106	0.15394147	0.045056927	0.14721483
3915	25.57	0.37214774	0.052406178	0.14413641	-0.031563602	0.74120386	0.14784459	-0.15980934	0.74784686	0.18941064	-0.27663	0.73456268	-0.043435944	-0.12785913	0.73851996	-0.22099603	-0.0053333516	0.72956281	-0.17056139	0.16876837	1.0412018	-0.012918258	0.11807448	1.13146	0.12625106	0.1147384	1.1381425	-0.15952124	0.15381236	0.9449668	-0.029460529	0.15472005	0.99861517	-0.13469464	0.28185312	0.49227536	0.078456993	0.2592182	0.51119531	0.21093704	0.19501704	0.64639752	0.12504509	0.25083226	0.10445319	0.10786678	0.19212473	0.089429176	0.19444763	0.23251463	0.3116633	0.21869781	0.1539525	0.044904011	0.14712508
3916	25.58	0.3720921	0.05263464	0.14414447	-0.02902634	0.74147217	0.14821895	-0.15693272	0.74947791	0.18975156	-0.27390863	0.73757892	-0.043233768	-0.12496396	0.7398111	-0.22080612	-0.0025415459	0.72914545	-0.17029762	0.17688643	1.0379265	-0.012764439	0.1276003	1.1291012	0.12624489	0.12434586	1.1356887	-0.15918022	0.16079292	0.94194678	-0.029225473	0.1624469	0.99572058	-0.13448224	0.28235959	0.49212711	0.078534531	0.25994516	0.51105292	0.21107031	0.19615157	0.64666205	0.12525488	0.25089818	0.10433064	0.10779836	0.19218011	0.089330963	0.19437158	0.23290298	0.31151379	0.2187278	0.15398376	0.044757328	0.14705418
3917	25.59	0.37204929	0.05287553	0.14416101	-0.026282549	0.74178784	0.1485842	-0.15389738	0.75122198	0.19009271	-0.27102747	0.74075946	-0.043025196	-0.12194239	0.7411817	-0.22060976	0.00035773191	0.72876245	-0.17004907	0.18515732	1.0346858	-0.012604789	0.13723283	1.1267676	0.12622431	0.13409952	1.1332423	-0.1588235	0.16796965	0.93896954	-0.029001789	0.17033414	0.99286096	-0.13426181	0.28290842	0.4919957	0.078600403	0.26069324	0.51092017	0.21118881	0.19731471	0.64693365	0.12546808	0.25098085	0.10420898	0.10774627	0.1922552	0.08923642	0.19431676	0.23330678	0.31137259	0.21876562	0.15403079	0.044613464	0.14700423
3918	25.6	0.37201413	0.053123711	0.1441825	-0.023353741	0.74216046	0.14892702	-0.15069336	0.75309528	0.19042526	-0.26798013	0.74411804	-0.042815834	-0.11879028	0.74264844	-0.22041515	0.0033461239	0.72842798	-0.1698179	0.19358578	1.0314958	-0.012427939	0.14695972	1.1244698	0.12619306	0.14398407	1.1308071	-0.15844191	0.17532957	0.93604791	-0.028789982	0.17836618	0.99004736	-0.13402962	0.28348401	0.4918782	0.078647308	0.26145435	0.5107999	0.2112834	0.19850345	0.64720984	0.12567567	0.25107562	0.1040871	0.10770738	0.19234381	0.089144279	0.19428168	0.23371643	0.31124133	0.21880115	0.15408888	0.044470394	0.14697533
